<svg width="256" height="256" viewBox="0 0 256 256" fill="none" xmlns="http://www.w3.org/2000/svg">
<path d="M219.445 165.751L216.978 160.181L186.146 228.256C189.845 227.637 193.545 226.4 197.245 225.162C207.112 220.83 213.895 213.403 218.212 204.739L219.445 202.264C224.378 191.124 224.378 177.509 219.445 165.751Z" fill="black"/>
<path fill-rule="evenodd" clip-rule="evenodd" d="M221.441 171.545L196.815 225.306C196.958 225.258 197.102 225.21 197.245 225.162C207.112 220.83 213.895 213.403 218.212 204.739L219.445 202.264C223.585 192.914 224.251 181.82 221.441 171.545Z" fill="black"/>
<path d="M133.729 192.362L183.062 85.2983L188.303 97.0567L138.046 202.264L133.729 192.362Z" fill="black"/>
<path d="M193.545 108.815L188.303 97.0566L138.046 202.264C139.896 206.596 142.363 210.309 145.446 213.403L149.146 205.358L193.545 108.815Z" fill="black"/>
<path d="M205.57 134.807L200.328 123.049L159.629 212.166L155.312 222.067C158.057 223.904 164 226.594 164 226.594L205.57 134.807Z" fill="black"/>
<path d="M210.812 146.566L205.57 134.807L164 226.594C164 226.594 170.384 228.562 173.812 228.875L210.812 146.566Z" fill="black"/>
<path d="M167.644 90.2493L116.462 202.883C106.595 225.162 80.6959 235.064 57.8796 225.162C35.68 214.641 25.8135 188.03 35.68 165.751L86.8624 53.1174C96.7289 30.8382 123.245 20.9364 145.445 30.8382C168.261 41.3589 178.127 67.9701 167.644 90.2493Z" fill="black"/>
</svg>
